<?xml version="1.0" encoding="UTF-8" standalone="no"?>
<svg
   xmlns:osb="http://www.openswatchbook.org/uri/2009/osb"
   xmlns:dc="http://purl.org/dc/elements/1.1/"
   xmlns:cc="http://creativecommons.org/ns#"
   xmlns:rdf="http://www.w3.org/1999/02/22-rdf-syntax-ns#"
   xmlns:svg="http://www.w3.org/2000/svg"
   xmlns="http://www.w3.org/2000/svg"
   xmlns:sodipodi="http://sodipodi.sourceforge.net/DTD/sodipodi-0.dtd"
   xmlns:inkscape="http://www.inkscape.org/namespaces/inkscape"
   width="873px"
   height="460px"
   viewBox="157.987 73.6239 64.0022 33.7326"
   preserveAspectRatio="xMidYMid meet"
   id="svg3386"
   version="1.1"
   inkscape:version="0.91 r13725"
   sodipodi:docname="logo_new.svg">
  <metadata
     id="metadata3396">
    <rdf:RDF>
      <cc:Work
         rdf:about="">
        <dc:format>image/svg+xml</dc:format>
        <dc:type
           rdf:resource="http://purl.org/dc/dcmitype/StillImage" />
        <dc:title></dc:title>
      </cc:Work>
    </rdf:RDF>
  </metadata>
  <defs
     id="defs3394">
    <linearGradient
       id="linearGradient4187"
       osb:paint="solid">
      <stop
         style="stop-color:#000000;stop-opacity:1;"
         offset="0"
         id="stop4189" />
    </linearGradient>
    <pattern
       patternUnits="userSpaceOnUse"
       width="841.87335"
       height="136.51393"
       patternTransform="matrix(0.07333174,0,0,0.07333175,159.49053,74.686907)"
       id="pattern3417">
      <text
         transform="scale(1.12441,0.88935532)"
         style="font-size:169.78971863px;font-family:Impact;fill:#ffffff;stroke:#000000;stroke-width:12.12783623"
         id="e2_texte"
         y="143.86052"
         x="-1.5710531">BCN TOP 10</text>
    </pattern>
  </defs>
  <sodipodi:namedview
     pagecolor="#ffffff"
     bordercolor="#666666"
     borderopacity="1"
     objecttolerance="10"
     gridtolerance="10"
     guidetolerance="10"
     inkscape:pageopacity="0"
     inkscape:pageshadow="2"
     inkscape:window-width="1248"
     inkscape:window-height="666"
     id="namedview3392"
     showgrid="false"
     inkscape:zoom="0.35806115"
     inkscape:cx="503.9082"
     inkscape:cy="-139.47857"
     inkscape:window-x="0"
     inkscape:window-y="23"
     inkscape:window-maximized="0"
     inkscape:current-layer="svg3386" />
  <rect
     id="svgEditorBackground"
     x="0"
     y="0"
     width="950"
     height="460"
     style="fill: none; stroke: none;" />
  <text
     fill="black"
     x="120"
     y="81"
     id="e1_texte"
     style="font-family: Arial; font-size: 20px;" />
  <g
     transform="matrix(0.58484338,0,0,0.47984159,55.639073,51.40809)"
     style="font-weight:bolder;font-size:44.40000153px;font-family:Impact;fill:#ff0000;stroke:#c0c0c0;stroke-width:1.44000006px"
     id="e3_texte">
    <path
       d="m 197.11238,77.364635 -8.47676,0 0,-2.601562 q 0,-1.821094 -0.32519,-2.319727 -0.3252,-0.498633 -1.08399,-0.498633 -0.82383,0 -1.25742,0.672071 -0.41192,0.67207 -0.41192,2.03789 0,1.756055 0.47696,2.644922 0.45527,0.888868 2.57988,2.146289 6.09199,3.620508 7.67461,5.940235 1.58262,2.319727 1.58262,7.479492 0,3.750587 -0.88887,5.528321 -0.86719,1.777737 -3.38203,2.991797 -2.51484,1.19238 -5.85352,1.19238 -3.66386,0 -6.26543,-1.3875 -2.57988,-1.387497 -3.38203,-3.533786 -0.80215,-2.14629 -0.80215,-6.091993 l 0,-2.298047 8.47676,0 0,4.270899 q 0,1.972851 0.34688,2.536523 0.36855,0.563672 1.2791,0.563672 0.91055,0 1.34414,-0.715429 0.45527,-0.71543 0.45527,-2.12461 0,-3.100195 -0.84551,-4.054102 -0.86718,-0.953906 -4.27089,-3.186914 -3.40372,-2.254687 -4.50938,-3.273633 -1.10566,-1.018945 -1.84277,-2.818359 -0.71543,-1.799414 -0.71543,-4.596094 0,-4.032422 1.01894,-5.896875 1.04063,-1.864453 3.33867,-2.905079 2.29805,-1.062304 5.55001,-1.062304 3.55546,0 6.04863,1.149023 2.51484,1.149024 3.31699,2.905078 0.82383,1.734376 0.82383,5.918555 l 0,1.3875 z"
       style="font-weight:bolder;font-size:44.40000153px;font-family:Impact;fill:#ff0000;stroke:#c0c0c0;stroke-width:1.44000006px"
       id="path4959"
       inkscape:connector-curvature="0" />
    <path
       d="m 221.50203,66.741588 0,23.457423 q 0,3.989062 -0.26016,5.615039 -0.26016,1.604297 -1.53926,3.316992 -1.2791,1.691018 -3.38203,2.579888 -2.08125,0.86718 -4.92129,0.86718 -3.14355,0 -5.55,-1.04062 -2.40644,-1.04063 -3.59883,-2.709963 -1.19238,-1.669336 -1.40918,-3.51211 -0.21679,-1.864453 -0.21679,-7.804688 l 0,-20.769141 9.12715,0 0,26.319142 q 0,2.298047 0.23847,2.948437 0.26016,0.628711 1.01895,0.628711 0.86719,0 1.10566,-0.69375 0.26016,-0.715429 0.26016,-3.338672 l 0,-25.863868 9.12715,0 z"
       style="font-weight:bolder;font-size:44.40000153px;font-family:Impact;fill:#ff0000;stroke:#c0c0c0;stroke-width:1.44000006px"
       id="path4961"
       inkscape:connector-curvature="0" />
    <path
       d="m 244.3741,77.364635 -8.47676,0 0,-2.601562 q 0,-1.821094 -0.3252,-2.319727 -0.32519,-0.498633 -1.08398,-0.498633 -0.82383,0 -1.25742,0.672071 -0.41192,0.67207 -0.41192,2.03789 0,1.756055 0.47696,2.644922 0.45527,0.888868 2.57988,2.146289 6.09199,3.620508 7.67461,5.940235 1.58262,2.319727 1.58262,7.479492 0,3.750587 -0.88887,5.528321 -0.86719,1.777737 -3.38203,2.991797 -2.51485,1.19238 -5.85352,1.19238 -3.66387,0 -6.26543,-1.3875 -2.57988,-1.387497 -3.38203,-3.533786 -0.80215,-2.14629 -0.80215,-6.091993 l 0,-2.298047 8.47676,0 0,4.270899 q 0,1.972851 0.34688,2.536523 0.36855,0.563672 1.2791,0.563672 0.91054,0 1.34414,-0.715429 0.45527,-0.71543 0.45527,-2.12461 0,-3.100195 -0.84551,-4.054102 -0.86718,-0.953906 -4.2709,-3.186914 -3.40371,-2.254687 -4.50937,-3.273633 -1.10566,-1.018945 -1.84277,-2.818359 -0.71543,-1.799414 -0.71543,-4.596094 0,-4.032422 1.01894,-5.896875 1.04063,-1.864453 3.33867,-2.905079 2.29805,-1.062304 5.55,-1.062304 3.55547,0 6.04864,1.149023 2.51484,1.149024 3.31699,2.905078 0.82383,1.734376 0.82383,5.918555 l 0,1.3875 z"
       style="font-weight:bolder;font-size:44.40000153px;font-family:Impact;fill:#ff0000;stroke:#c0c0c0;stroke-width:1.44000006px"
       id="path4963"
       inkscape:connector-curvature="0" />
    <path
       d="m 269.00222,66.741588 0,35.099412 -9.12715,0 0,-14.742185 -2.73164,0 0,14.742185 -9.12715,0 0,-35.099412 9.12715,0 0,12.55254 2.73164,0 0,-12.55254 9.12715,0 z"
       style="font-weight:bolder;font-size:44.40000153px;font-family:Impact;fill:#ff0000;stroke:#c0c0c0;stroke-width:1.44000006px"
       id="path4965"
       inkscape:connector-curvature="0" />
    <path
       d="m 281.77156,66.741588 0,35.099412 -9.12715,0 0,-35.099412 9.12715,0 z"
       style="font-weight:bolder;font-size:44.40000153px;font-family:Impact;fill:#ff0000;stroke:#c0c0c0;stroke-width:1.44000006px"
       id="path4967"
       inkscape:connector-curvature="0" />
  </g>
  <g
     transform="matrix(0.35960571,0,0,0.18822111,146.46105,65.454648)"
     style="font-style:normal;font-weight:normal;font-size:40px;line-height:125%;font-family:sans-serif;letter-spacing:0px;word-spacing:0px;fill:#000000;fill-opacity:1;stroke:#ffffff;stroke-width:1px;stroke-linecap:butt;stroke-linejoin:miter;stroke-opacity:1"
     id="flowRoot3346">
    <path
       d="m 35.408203,53.922474 8.203125,0 q 3.886719,0 5.878906,0.605468 2.011719,0.605469 3.242188,2.460938 1.230469,1.835937 1.230469,5.9375 0,2.773437 -0.878907,3.867187 -0.859375,1.09375 -3.417968,1.679688 2.851562,0.644531 3.867187,2.148437 1.015625,1.484375 1.015625,4.570313 l 0,2.929687 q 0,3.203125 -0.742187,4.746094 -0.722657,1.542969 -2.324219,2.109375 -1.601563,0.566406 -6.5625,0.566406 l -9.511719,0 0,-31.621093 z m 8.222656,5.410156 0,7.03125 q 0.527344,-0.01953 0.820313,-0.01953 1.210937,0 1.542969,-0.585938 0.332031,-0.605469 0.332031,-3.417969 0,-1.484375 -0.273438,-2.070312 -0.273437,-0.605469 -0.722656,-0.761719 -0.429687,-0.15625 -1.699219,-0.175781 z m 0,11.953125 0,8.847656 q 1.738282,-0.05859 2.207032,-0.546875 0.488281,-0.488281 0.488281,-2.402344 l 0,-2.949218 q 0,-2.03125 -0.429688,-2.460938 -0.429687,-0.429687 -2.265625,-0.488281 z"
       style="font-style:normal;font-variant:normal;font-weight:normal;font-stretch:condensed;font-size:40px;line-height:128.99999619%;font-family:Impact;-inkscape-font-specification:'Impact, Condensed';text-align:start;writing-mode:lr-tb;text-anchor:start;stroke:#ffffff;stroke-opacity:1"
       id="path3355"
       inkscape:connector-curvature="0" />
    <path
       d="m 76.716797,67.711536 -8.222656,0 0,-5.507812 q 0,-2.402344 -0.273438,-2.988282 -0.253906,-0.605468 -1.152344,-0.605468 -1.015625,0 -1.289062,0.722656 -0.273438,0.722656 -0.273438,3.125 l 0,14.6875 q 0,2.304687 0.273438,3.007812 0.273437,0.703125 1.230469,0.703125 0.917968,0 1.191406,-0.703125 0.292969,-0.703125 0.292969,-3.300781 l 0,-3.964844 8.222656,0 0,1.230469 q 0,4.902344 -0.703125,6.953125 -0.683594,2.050781 -3.066406,3.59375 -2.363282,1.542969 -5.839844,1.542969 -3.613281,0 -5.957031,-1.308594 -2.34375,-1.308594 -3.105469,-3.613281 -0.761719,-2.324219 -0.761719,-6.972656 l 0,-9.238282 q 0,-3.417968 0.234375,-5.117187 0.234375,-1.71875 1.386719,-3.300781 1.171875,-1.582032 3.222656,-2.480469 2.070313,-0.917969 4.746094,-0.917969 3.632812,0 5.996094,1.40625 2.363281,1.40625 3.105468,3.515625 0.742188,2.089844 0.742188,6.523438 l 0,3.007812 z"
       style="font-style:normal;font-variant:normal;font-weight:normal;font-stretch:condensed;font-size:40px;line-height:128.99999619%;font-family:Impact;-inkscape-font-specification:'Impact, Condensed';text-align:start;writing-mode:lr-tb;text-anchor:start;stroke:#ffffff;stroke-opacity:1"
       id="path3357"
       inkscape:connector-curvature="0" />
    <path
       d="m 98.064453,53.922474 0,31.621093 -7.207031,0 -4.277344,-14.375 0,14.375 -6.875,0 0,-31.621093 6.875,0 4.609375,14.238281 0,-14.238281 6.875,0 z"
       style="font-style:normal;font-variant:normal;font-weight:normal;font-stretch:condensed;font-size:40px;line-height:128.99999619%;font-family:Impact;-inkscape-font-specification:'Impact, Condensed';text-align:start;writing-mode:lr-tb;text-anchor:start;stroke:#ffffff;stroke-opacity:1"
       id="path3359"
       inkscape:connector-curvature="0" />
    <path
       d="m 124.93945,53.922474 0,6.328125 -4.88281,0 0,25.292968 -8.22266,0 0,-25.292968 -4.86328,0 0,-6.328125 17.96875,0 z"
       style="font-style:normal;font-variant:normal;font-weight:normal;font-stretch:condensed;font-size:40px;line-height:128.99999619%;font-family:Impact;-inkscape-font-specification:'Impact, Condensed';text-align:start;writing-mode:lr-tb;text-anchor:start;stroke:#ffffff;stroke-opacity:1"
       id="path3361"
       inkscape:connector-curvature="0" />
    <path
       d="m 145.60352,72.438099 q 0,4.765625 -0.23438,6.757812 -0.21484,1.972656 -1.40625,3.613281 -1.17187,1.640625 -3.18359,2.519532 -2.01172,0.878906 -4.6875,0.878906 -2.53907,0 -4.57032,-0.820313 -2.01171,-0.839843 -3.24218,-2.5 -1.23047,-1.660156 -1.46485,-3.613281 -0.23437,-1.953125 -0.23437,-6.835937 l 0,-5.410157 q 0,-4.765625 0.21484,-6.738281 0.23438,-1.992187 1.40625,-3.632812 1.19141,-1.640625 3.20313,-2.519532 2.01172,-0.878906 4.6875,-0.878906 2.53906,0 4.55078,0.839844 2.03125,0.820312 3.26172,2.480469 1.23047,1.660156 1.46484,3.613281 0.23438,1.953125 0.23438,6.835937 l 0,5.410157 z m -8.22266,-10.390625 q 0,-2.207032 -0.25391,-2.8125 -0.23437,-0.625 -0.99609,-0.625 -0.64453,0 -0.99609,0.507812 -0.33204,0.488281 -0.33204,2.929688 l 0,14.765625 q 0,2.753906 0.21485,3.398437 0.23437,0.644531 1.05469,0.644531 0.83984,0 1.07421,-0.742187 0.23438,-0.742188 0.23438,-3.535156 l 0,-14.53125 z"
       style="font-style:normal;font-variant:normal;font-weight:normal;font-stretch:condensed;font-size:40px;line-height:128.99999619%;font-family:Impact;-inkscape-font-specification:'Impact, Condensed';text-align:start;writing-mode:lr-tb;text-anchor:start;stroke:#ffffff;stroke-opacity:1"
       id="path3363"
       inkscape:connector-curvature="0" />
    <path
       d="m 148.61133,53.922474 8.28125,0 q 3.35937,0 5.15625,0.527343 1.8164,0.527344 2.71484,1.523438 0.91797,0.996094 1.23047,2.421875 0.33203,1.40625 0.33203,4.375 l 0,2.753906 q 0,3.027344 -0.625,4.414063 -0.625,1.386718 -2.30469,2.128906 -1.66015,0.742187 -4.35546,0.742187 l -2.20704,0 0,12.734375 -8.22265,0 0,-31.621093 z m 8.22265,5.410156 0,8.046875 q 0.35157,0.01953 0.60547,0.01953 1.13282,0 1.5625,-0.546875 0.44922,-0.566406 0.44922,-2.324219 l 0,-2.597656 q 0,-1.621094 -0.50781,-2.109375 -0.50781,-0.488281 -2.10938,-0.488281 z"
       style="font-style:normal;font-variant:normal;font-weight:normal;font-stretch:condensed;font-size:40px;line-height:128.99999619%;font-family:Impact;-inkscape-font-specification:'Impact, Condensed';text-align:start;writing-mode:lr-tb;text-anchor:start;stroke:#ffffff;stroke-opacity:1"
       id="path3365"
       inkscape:connector-curvature="0" />
    <path
       d="m 186.71762,53.922474 0,31.621093 -7.89063,0 0,-16.953125 q 0,-3.671875 -0.17578,-4.414062 -0.17578,-0.742188 -0.97656,-1.113281 -0.78125,-0.390625 -3.51563,-0.390625 l -0.78125,0 0,-3.691407 q 5.72266,-1.230468 8.69141,-5.058593 l 4.64844,0 z"
       style="font-style:normal;font-variant:normal;font-weight:normal;font-stretch:condensed;font-size:40px;line-height:128.99999619%;font-family:Impact;-inkscape-font-specification:'Impact, Condensed';text-align:start;writing-mode:lr-tb;text-anchor:start;stroke:#ffffff;stroke-opacity:1"
       id="path3367"
       inkscape:connector-curvature="0" />
    <path
       d="m 207.30197,64.625599 0,10.546875 q 0,3.59375 -0.39063,5.234375 -0.39062,1.640625 -1.62109,3.066406 -1.23047,1.425781 -2.96875,2.050781 -1.73828,0.625 -3.88672,0.625 -2.83203,0 -4.70703,-0.644531 -1.875,-0.664063 -2.98828,-2.050781 -1.11328,-1.386719 -1.58203,-2.910157 -0.46875,-1.542968 -0.46875,-4.882812 l 0,-11.035156 q 0,-4.355469 0.74219,-6.523438 0.76171,-2.167969 2.98828,-3.476562 2.24609,-1.308594 5.42968,-1.308594 2.59766,0 4.64844,0.917969 2.05078,0.898437 3.06641,2.207031 1.01562,1.308594 1.36719,2.949219 0.37109,1.640625 0.37109,5.234375 z m -7.89063,-2.65625 q 0,-2.519532 -0.2539,-3.144532 -0.23438,-0.644531 -1.13281,-0.644531 -0.87891,0 -1.17188,0.683594 -0.27344,0.664062 -0.27344,3.105469 l 0,15.429687 q 0,2.753906 0.25391,3.320313 0.27344,0.566406 1.15234,0.566406 0.87891,0 1.15235,-0.664063 0.27343,-0.664062 0.27343,-2.988281 l 0,-15.664062 z"
       style="font-style:normal;font-variant:normal;font-weight:normal;font-stretch:condensed;font-size:40px;line-height:128.99999619%;font-family:Impact;-inkscape-font-specification:'Impact, Condensed';text-align:start;writing-mode:lr-tb;text-anchor:start;stroke:#ffffff;stroke-opacity:1"
       id="path3369"
       inkscape:connector-curvature="0" />
  </g>
  <g
     transform="matrix(0.17272574,0,0,0.13119226,153.72181,46.12034)"
     style="font-style:normal;font-weight:normal;font-size:40px;line-height:125%;font-family:sans-serif;letter-spacing:0px;word-spacing:0px;fill:#000000;fill-opacity:1;stroke:#ffffff;stroke-width:2.56897879;stroke-linecap:butt;stroke-linejoin:miter;stroke-miterlimit:4;stroke-dasharray:none;stroke-opacity:1"
     id="flowRoot4180">
    <path
       d="m 44.077635,439.55242 q 2.658692,0 3.80127,-0.98877 1.16455,-0.98877 1.16455,-3.25196 0,-2.24121 -1.16455,-3.208 -1.142578,-0.9668 -3.80127,-0.9668 l -3.55957,0 0,8.41553 3.55957,0 z m -3.55957,5.84472 0,12.41455 -8.459472,0 0,-32.80517 12.919921,0 q 6.481933,0 9.492187,2.17529 3.032226,2.17529 3.032226,6.87744 0,3.25196 -1.582031,5.33936 -1.560058,2.0874 -4.724121,3.07617 1.73584,0.39551 3.098145,1.80176 1.384277,1.38427 2.790527,4.21875 l 4.592285,9.3164 -9.008789,0 -3.999023,-8.15185 q -1.208496,-2.46094 -2.460937,-3.36182 -1.230469,-0.90088 -3.295898,-0.90088 l -2.39502,0 z"
       style="font-style:normal;font-variant:normal;font-weight:bold;font-stretch:normal;font-size:44.99999619px;line-height:134.00000334%;font-family:sans-serif;-inkscape-font-specification:'sans-serif Bold';letter-spacing:0px;stroke-width:2.56897879;stroke-miterlimit:4;stroke-dasharray:none"
       id="path4189" />
    <path
       d="m 66.687496,425.00652 22.829588,0 0,6.39404 -14.370116,0 0,6.1084 13.513182,0 0,6.39404 -13.513182,0 0,7.51465 14.853514,0 0,6.39404 -23.312986,0 0,-32.80517 z"
       style="font-style:normal;font-variant:normal;font-weight:bold;font-stretch:normal;font-size:44.99999619px;line-height:134.00000334%;font-family:sans-serif;-inkscape-font-specification:'sans-serif Bold';letter-spacing:0px;stroke-width:2.56897879;stroke-miterlimit:4;stroke-dasharray:none"
       id="path4191" />
    <path
       d="m 120.2788,426.03923 0,6.94336 q -2.70264,-1.20849 -5.27344,-1.82373 -2.5708,-0.61523 -4.85595,-0.61523 -3.03223,0 -4.48243,0.83496 -1.45019,0.83496 -1.45019,2.59277 0,1.31836 0.9668,2.06543 0.98876,0.7251 3.55957,1.25244 l 3.60351,0.7251 q 5.47119,1.09863 7.77832,3.33984 2.30713,2.24121 2.30713,6.37207 0,5.42725 -3.22998,8.08594 -3.20801,2.63672 -9.82178,2.63672 -3.12011,0 -6.2622,-0.59326 -3.142094,-0.59326 -6.284184,-1.75781 l 0,-7.14112 q 3.14209,1.66992 6.064454,2.52686 2.94433,0.83496 5.66894,0.83496 2.76856,0 4.24073,-0.92285 1.47216,-0.92285 1.47216,-2.63672 0,-1.53809 -1.01074,-2.37305 -0.98877,-0.83496 -3.97705,-1.49414 l -3.27392,-0.7251 q -4.92188,-1.05468 -7.207035,-3.36181 -2.263183,-2.30713 -2.263183,-6.21826 0,-4.89991 3.164062,-7.53662 3.164066,-2.63672 9.096676,-2.63672 2.70264,0 5.55908,0.41748 2.85645,0.39551 5.91065,1.20849 z"
       style="font-style:normal;font-variant:normal;font-weight:bold;font-stretch:normal;font-size:44.99999619px;line-height:134.00000334%;font-family:sans-serif;-inkscape-font-specification:'sans-serif Bold';letter-spacing:0px;stroke-width:2.56897879;stroke-miterlimit:4;stroke-dasharray:none"
       id="path4193" />
    <path
       d="m 126.05761,425.00652 30.23437,0 0,6.39404 -10.87646,0 0,26.41113 -8.45947,0 0,-26.41113 -10.89844,0 0,-6.39404 z"
       style="font-style:normal;font-variant:normal;font-weight:bold;font-stretch:normal;font-size:44.99999619px;line-height:134.00000334%;font-family:sans-serif;-inkscape-font-specification:'sans-serif Bold';letter-spacing:0px;stroke-width:2.56897879;stroke-miterlimit:4;stroke-dasharray:none"
       id="path4195" />
    <path
       d="m 177.03417,451.83513 -13.22754,0 -2.0874,5.97656 -8.50342,0 12.15088,-32.80517 10.08545,0 12.15088,32.80517 -8.50342,0 -2.06543,-5.97656 z m -11.11816,-6.08642 8.98681,0 -4.48242,-13.05176 -4.50439,13.05176 z"
       style="font-style:normal;font-variant:normal;font-weight:bold;font-stretch:normal;font-size:44.99999619px;line-height:134.00000334%;font-family:sans-serif;-inkscape-font-specification:'sans-serif Bold';letter-spacing:0px;stroke-width:2.56897879;stroke-miterlimit:4;stroke-dasharray:none"
       id="path4197" />
    <path
       d="m 190.52538,425.00652 8.45947,0 0,19.66552 q 0,4.06495 1.31836,5.82276 1.34033,1.73584 4.35058,1.73584 3.03223,0 4.35059,-1.73584 1.34033,-1.75781 1.34033,-5.82276 l 0,-19.66552 8.45947,0 0,19.66552 q 0,6.96534 -3.49365,10.3711 -3.49365,3.40576 -10.65674,3.40576 -7.14111,0 -10.63476,-3.40576 -3.49365,-3.40576 -3.49365,-10.3711 l 0,-19.66552 z"
       style="font-style:normal;font-variant:normal;font-weight:bold;font-stretch:normal;font-size:44.99999619px;line-height:134.00000334%;font-family:sans-serif;-inkscape-font-specification:'sans-serif Bold';letter-spacing:0px;stroke-width:2.56897879;stroke-miterlimit:4;stroke-dasharray:none"
       id="path4199" />
    <path
       d="m 239.10692,439.55242 q 2.65869,0 3.80127,-0.98877 1.16455,-0.98877 1.16455,-3.25196 0,-2.24121 -1.16455,-3.208 -1.14258,-0.9668 -3.80127,-0.9668 l -3.55957,0 0,8.41553 3.55957,0 z m -3.55957,5.84472 0,12.41455 -8.45947,0 0,-32.80517 12.91992,0 q 6.48193,0 9.49218,2.17529 3.03223,2.17529 3.03223,6.87744 0,3.25196 -1.58203,5.33936 -1.56006,2.0874 -4.72412,3.07617 1.73584,0.39551 3.09814,1.80176 1.38428,1.38427 2.79053,4.21875 l 4.59228,9.3164 -9.00879,0 -3.99902,-8.15185 q -1.20849,-2.46094 -2.46094,-3.36182 -1.23046,-0.90088 -3.29589,-0.90088 l -2.39502,0 z"
       style="font-style:normal;font-variant:normal;font-weight:bold;font-stretch:normal;font-size:44.99999619px;line-height:134.00000334%;font-family:sans-serif;-inkscape-font-specification:'sans-serif Bold';letter-spacing:0px;stroke-width:2.56897879;stroke-miterlimit:4;stroke-dasharray:none"
       id="path4201" />
    <path
       d="m 281.62399,451.83513 -13.22754,0 -2.0874,5.97656 -8.50342,0 12.15088,-32.80517 10.08545,0 12.15088,32.80517 -8.50342,0 -2.06543,-5.97656 z m -11.11816,-6.08642 8.98681,0 -4.48242,-13.05176 -4.50439,13.05176 z"
       style="font-style:normal;font-variant:normal;font-weight:bold;font-stretch:normal;font-size:44.99999619px;line-height:134.00000334%;font-family:sans-serif;-inkscape-font-specification:'sans-serif Bold';letter-spacing:0px;stroke-width:2.56897879;stroke-miterlimit:4;stroke-dasharray:none"
       id="path4203" />
    <path
       d="m 296.52145,425.00652 9.44824,0 11.93116,22.5 0,-22.5 8.02002,0 0,32.80517 -9.44825,0 -11.93115,-22.5 0,22.5 -8.02002,0 0,-32.80517 z"
       style="font-style:normal;font-variant:normal;font-weight:bold;font-stretch:normal;font-size:44.99999619px;line-height:134.00000334%;font-family:sans-serif;-inkscape-font-specification:'sans-serif Bold';letter-spacing:0px;stroke-width:2.56897879;stroke-miterlimit:4;stroke-dasharray:none"
       id="path4205" />
    <path
       d="m 330.22751,425.00652 30.23437,0 0,6.39404 -10.87646,0 0,26.41113 -8.45947,0 0,-26.41113 -10.89844,0 0,-6.39404 z"
       style="font-style:normal;font-variant:normal;font-weight:bold;font-stretch:normal;font-size:44.99999619px;line-height:134.00000334%;font-family:sans-serif;-inkscape-font-specification:'sans-serif Bold';letter-spacing:0px;stroke-width:2.56897879;stroke-miterlimit:4;stroke-dasharray:none"
       id="path4207" />
    <path
       d="m 387.64206,426.03923 0,6.94336 q -2.70264,-1.20849 -5.27344,-1.82373 -2.5708,-0.61523 -4.85596,-0.61523 -3.03222,0 -4.48242,0.83496 -1.45019,0.83496 -1.45019,2.59277 0,1.31836 0.96679,2.06543 0.98877,0.7251 3.55957,1.25244 l 3.60352,0.7251 q 5.47119,1.09863 7.77832,3.33984 2.30713,2.24121 2.30713,6.37207 0,5.42725 -3.22998,8.08594 -3.20801,2.63672 -9.82178,2.63672 -3.12012,0 -6.26221,-0.59326 -3.14209,-0.59326 -6.28418,-1.75781 l 0,-7.14112 q 3.14209,1.66992 6.06446,2.52686 2.94433,0.83496 5.66894,0.83496 2.76856,0 4.24072,-0.92285 1.47217,-0.92285 1.47217,-2.63672 0,-1.53809 -1.01074,-2.37305 -0.98877,-0.83496 -3.97705,-1.49414 l -3.27393,-0.7251 q -4.92187,-1.05468 -7.20703,-3.36181 -2.26318,-2.30713 -2.26318,-6.21826 0,-4.89991 3.16406,-7.53662 3.16406,-2.63672 9.09668,-2.63672 2.70264,0 5.55908,0.41748 2.85645,0.39551 5.91065,1.20849 z"
       style="font-style:normal;font-variant:normal;font-weight:bold;font-stretch:normal;font-size:44.99999619px;line-height:134.00000334%;font-family:sans-serif;-inkscape-font-specification:'sans-serif Bold';letter-spacing:0px;stroke-width:2.56897879;stroke-miterlimit:4;stroke-dasharray:none"
       id="path4209" />
  </g>
</svg>
