<?xml version="1.0" encoding="UTF-8" ?>
<!DOCTYPE svg PUBLIC "-//W3C//DTD SVG 1.1//EN" "http://www.w3.org/Graphics/SVG/1.1/DTD/svg11.dtd">
<svg width="530pt" height="530pt" viewBox="0 0 530 530" version="1.1" xmlns="http://www.w3.org/2000/svg">
<path fill="#fefefe" d=" M 0.00 0.00 L 530.00 0.00 L 530.00 530.00 L 527.44 530.00 C 527.88 528.71 528.09 527.39 528.08 526.03 C 528.04 351.02 528.07 176.01 528.06 1.00 C 353.04 1.00 178.02 1.00 3.00 1.00 C 2.99 175.67 3.02 350.34 2.99 525.02 C 3.00 526.68 3.16 528.33 3.32 530.00 L 0.00 530.00 L 0.00 0.00 Z" />
<path fill="#000000" d=" M 3.00 1.00 C 178.02 1.00 353.04 1.00 528.06 1.00 C 528.07 176.01 528.04 351.02 528.08 526.03 C 528.09 527.39 527.88 528.71 527.44 530.00 L 3.32 530.00 C 3.16 528.33 3.00 526.68 2.99 525.02 C 3.02 350.34 2.99 175.67 3.00 1.00 Z" />
<path fill="#03c121" d=" M 52.23 35.35 C 52.69 35.46 53.61 35.69 54.06 35.80 C 54.05 37.23 54.04 38.66 54.03 40.09 C 55.77 40.57 57.45 41.23 59.07 42.02 C 60.09 40.94 61.03 39.29 62.73 40.30 C 63.46 44.19 62.85 48.20 63.04 52.14 C 62.19 52.16 60.49 52.22 59.64 52.25 C 59.43 50.28 59.74 48.13 58.77 46.33 C 57.56 44.92 55.75 44.35 54.05 43.80 C 54.03 48.17 54.04 52.54 54.05 56.90 C 57.60 58.38 61.86 59.55 63.82 63.19 C 65.56 67.41 64.75 73.18 60.66 75.75 C 58.77 77.08 56.42 77.29 54.22 77.72 C 54.12 79.15 54.01 80.59 53.90 82.03 C 53.20 82.04 51.80 82.04 51.10 82.05 C 51.01 80.52 50.92 78.99 50.83 77.47 C 48.19 77.16 45.72 76.18 43.42 74.88 C 43.22 75.59 42.83 77.02 42.63 77.73 C 42.04 77.71 40.86 77.67 40.27 77.66 C 39.40 73.10 40.04 68.43 39.89 63.83 C 40.70 63.82 42.33 63.80 43.14 63.79 C 43.38 66.06 42.78 68.66 44.16 70.67 C 45.91 72.65 48.59 73.30 50.98 74.17 C 51.01 69.48 50.99 64.80 50.99 60.11 C 47.35 58.66 42.78 57.78 40.90 53.90 C 39.44 50.53 39.87 46.11 42.46 43.37 C 44.71 41.15 47.89 40.29 50.94 39.88 C 51.27 38.36 50.12 35.81 52.23 35.35 Z" />
<path fill="#000000" d=" M 44.00 50.02 C 43.60 46.19 47.61 43.83 50.98 43.65 C 51.00 47.80 50.99 51.95 51.00 56.09 C 48.20 54.88 43.84 53.88 44.00 50.02 Z" />
<path fill="#03c121" d=" M 75.14 47.08 C 77.94 46.59 80.39 48.24 82.90 49.19 C 90.26 52.19 97.59 55.25 104.95 58.24 C 104.97 59.43 104.97 60.63 104.97 61.83 C 95.93 65.43 87.04 69.39 77.99 72.94 C 75.73 74.28 74.20 70.30 76.45 69.58 C 84.00 66.43 91.57 63.31 99.23 60.43 C 98.89 60.18 98.23 59.67 97.90 59.42 C 90.28 56.15 82.47 53.34 74.92 49.93 C 74.97 49.21 75.08 47.79 75.14 47.08 Z" />
<path fill="#000000" d=" M 54.00 60.93 C 56.48 62.16 59.86 62.97 60.63 66.04 C 61.92 70.21 58.11 74.04 54.06 74.19 C 54.03 69.77 54.07 65.35 54.00 60.93 Z" />
<path fill="#03c121" d=" M 112.91 73.79 C 120.92 73.08 128.98 73.63 137.01 73.47 C 139.38 72.90 140.04 75.29 139.16 77.03 C 130.42 76.95 121.69 77.10 112.95 76.95 C 112.94 76.16 112.92 74.58 112.91 73.79 Z" />
<path fill="#00b6fe" d=" M 258.27 192.34 C 280.53 192.36 302.80 192.35 325.06 192.35 C 326.36 192.38 328.34 192.28 328.57 194.01 C 336.08 221.68 343.52 249.38 351.06 277.05 C 354.12 289.01 358.04 300.80 359.46 313.12 C 361.09 321.77 361.71 330.57 363.50 339.20 C 365.96 324.84 367.62 310.31 371.18 296.15 C 380.22 262.44 389.54 228.81 398.58 195.10 C 398.81 193.80 399.46 192.21 401.06 192.40 C 422.05 192.26 443.04 192.43 464.02 192.32 C 465.32 192.19 466.57 192.60 467.77 193.09 C 467.74 284.40 467.73 375.71 467.77 467.02 C 466.59 467.55 465.33 467.93 464.02 467.81 C 450.75 467.68 437.46 467.87 424.19 467.72 C 422.68 467.67 422.34 466.25 422.48 465.02 C 422.46 408.69 422.47 352.35 422.47 296.02 C 422.55 285.02 422.08 273.96 423.50 263.02 C 423.92 253.95 424.39 244.89 424.79 235.82 C 423.76 238.10 423.85 240.65 423.42 243.07 C 421.66 244.50 422.20 247.07 421.63 249.05 C 417.93 266.06 414.66 283.18 410.08 299.99 C 402.02 330.35 393.92 360.69 385.96 391.07 C 385.59 392.49 384.88 394.55 383.02 394.32 C 369.01 394.41 354.98 394.49 340.97 394.27 C 339.31 391.03 338.87 387.38 337.81 383.94 C 331.51 360.64 325.25 337.33 318.99 314.02 C 312.92 292.52 307.93 270.74 303.38 248.88 C 303.06 246.72 302.63 244.56 301.70 242.57 C 300.79 240.43 301.97 237.69 300.33 235.85 C 299.76 241.92 300.80 247.96 301.17 254.01 C 301.45 263.03 301.91 272.05 301.71 281.08 C 301.55 284.73 302.61 288.31 302.44 291.97 C 302.25 321.72 302.70 351.49 302.21 381.23 C 287.00 355.35 272.10 329.28 257.12 303.27 C 257.45 266.55 257.22 229.82 257.24 193.10 C 257.50 192.91 258.01 192.53 258.27 192.34 Z" />
<path fill="#fefefe" d=" M 106.08 344.20 C 135.30 293.87 164.18 243.33 193.49 193.05 C 214.64 229.83 235.84 266.57 257.12 303.27 C 272.10 329.28 287.00 355.35 302.21 381.23 C 318.59 410.09 335.34 438.75 351.91 467.51 C 333.28 467.59 314.65 467.28 296.03 467.73 C 258.52 467.69 221.02 467.36 183.51 467.51 C 183.53 483.02 183.45 498.54 183.55 514.06 C 181.26 513.36 179.50 511.66 177.55 510.36 C 143.91 486.83 110.35 463.20 76.69 439.70 C 99.31 423.59 122.14 407.79 144.85 391.80 C 157.76 382.86 170.48 373.62 183.52 364.87 C 183.44 380.46 183.60 396.06 183.44 411.65 C 207.41 411.88 231.38 411.69 255.35 411.75 C 235.01 375.79 214.00 340.20 193.57 304.30 C 181.20 324.78 169.57 345.71 157.49 366.37 C 156.28 368.15 155.60 370.42 154.02 371.87 C 137.95 362.82 121.99 353.55 106.08 344.20 Z" />
</svg>
